<svg width="103" height="23" viewBox="0 0 103 23" fill="none" xmlns="http://www.w3.org/2000/svg">
<path fill-rule="evenodd" clip-rule="evenodd" d="M78.4989 9.8462C78.4043 9.82226 78.3052 9.80955 78.2031 9.80955C77.5386 9.80955 77 10.3482 77 11.0126C77 11.6771 77.5386 12.2157 78.2031 12.2157C78.3797 12.2157 78.5475 12.1776 78.6986 12.1092L83.2246 19.9484C82.9292 20.1676 82.7377 20.519 82.7377 20.9151C82.7377 21.5796 83.2763 22.1182 83.9408 22.1182C84.5423 22.1182 85.0407 21.6768 85.1297 21.1002H94.0423C94.1313 21.6768 94.6297 22.1182 95.2312 22.1182C95.8956 22.1182 96.4343 21.5796 96.4343 20.9151C96.4343 20.5944 96.3088 20.303 96.1042 20.0873L100.66 12.1963C100.73 12.209 100.803 12.2157 100.876 12.2157C101.541 12.2157 102.079 11.6771 102.079 11.0126C102.079 10.3482 101.541 9.80955 100.876 9.80955C100.674 9.80955 100.484 9.85934 100.317 9.94733L95.8605 2.22867C96.2047 2.017 96.4343 1.63685 96.4343 1.20308C96.4343 0.538635 95.8956 0 95.2312 0C94.6297 0 94.1313 0.441428 94.0423 1.018H85.1297C85.0407 0.441428 84.5423 0 83.9408 0C83.2763 0 82.7377 0.538635 82.7377 1.20308C82.7377 1.50527 82.8491 1.78144 83.0331 1.99275L78.4989 9.8462ZM84.2405 2.36852C84.1447 2.39309 84.0443 2.40615 83.9408 2.40615C83.7802 2.40615 83.6269 2.37467 83.4868 2.31754L78.9914 10.1038C79.2455 10.3243 79.4061 10.6497 79.4062 11.0126H83.1265C83.2124 10.5903 83.5857 10.2725 84.0333 10.2725C84.2657 10.2725 84.4781 10.3582 84.6407 10.4997L86.7265 9.29421C86.7204 9.25102 86.7172 9.20687 86.7172 9.16197C86.7172 8.95542 86.7848 8.76467 86.8992 8.61069L84.2405 2.36852ZM84.8048 2.04025L87.4523 8.25611C87.5137 8.24327 87.5774 8.23652 87.6426 8.23652C87.8236 8.23652 87.9924 8.28848 88.1351 8.37828L94.1149 1.65262C94.0811 1.56874 94.0565 1.48018 94.0423 1.38818H85.1297C85.0909 1.63975 84.9741 1.86558 84.8048 2.04025ZM94.0423 20.7301H85.1297C85.0985 20.528 85.0171 20.3426 84.8985 20.187L87.1382 17.8967C87.2833 17.9912 87.4566 18.0461 87.6426 18.0461C87.8437 18.0461 88.0298 17.9819 88.1816 17.873L94.0743 20.5838C94.0607 20.6314 94.05 20.6802 94.0423 20.7301ZM94.3478 20.0984L88.5195 17.4172C88.551 17.3241 88.568 17.2244 88.568 17.1206C88.568 17.0882 88.5664 17.0561 88.5631 17.0245L90.6086 15.8424C90.7751 16.0035 91.0019 16.1026 91.2519 16.1026C91.3844 16.1026 91.5104 16.0747 91.6244 16.0245L94.4599 19.9918C94.4203 20.0249 94.3828 20.0606 94.3478 20.0984ZM94.778 19.8003L91.9265 15.8106C92.082 15.645 92.1773 15.4222 92.1773 15.1771C92.1773 15.0818 92.1629 14.9899 92.1361 14.9034L99.9364 11.7636C99.9985 11.8411 100.07 11.9108 100.149 11.971L95.6388 19.7829C95.5115 19.737 95.3743 19.7121 95.2312 19.7121C95.0709 19.7121 94.9179 19.7434 94.778 19.8003ZM99.7873 11.5243L92.0147 14.653C91.8743 14.4491 91.6542 14.3042 91.3995 14.2634V12.1117C91.6784 12.067 91.9158 11.8975 92.0525 11.6624L99.738 11.4028C99.7523 11.4444 99.7687 11.485 99.7873 11.5243ZM95.6077 2.34608L100.087 10.1047C99.9188 10.2511 99.7916 10.4436 99.7251 10.6625L92.1344 10.9189C92.0806 10.7485 91.9788 10.5994 91.8448 10.4875L95.2547 2.40593C95.3778 2.40357 95.4963 2.38274 95.6077 2.34608ZM94.7033 2.28443C94.5542 2.21153 94.4225 2.1087 94.3158 1.98379L88.4029 8.63417C88.507 8.78387 88.568 8.96579 88.568 9.16197C88.568 9.22389 88.562 9.28439 88.5504 9.34291L90.6087 10.5325C90.7752 10.3715 91.002 10.2725 91.2518 10.2725C91.2786 10.2725 91.3052 10.2737 91.3314 10.2759L94.7033 2.28443ZM83.4651 19.8098L78.9367 11.9662C78.9823 11.9311 79.0253 11.8927 79.0654 11.8515L83.0464 14.9388C83.0262 15.0148 83.0154 15.0947 83.0154 15.1771C83.0154 15.6274 83.337 16.0026 83.763 16.0855L83.8053 19.7196C83.6857 19.733 83.5715 19.7639 83.4651 19.8098ZM83.2159 14.6018C83.3564 14.425 83.5603 14.3007 83.7932 14.2634V12.0919C83.4568 12.0018 83.1961 11.7269 83.1263 11.3827H79.3481C79.3295 11.4403 79.3067 11.496 79.28 11.5495L83.2159 14.6018ZM84.6318 19.9302C84.4974 19.8357 84.3428 19.7681 84.1757 19.735L84.1332 16.0826C84.3063 16.046 84.4615 15.961 84.5841 15.8424L86.7182 17.0758C86.7175 17.0906 86.7172 17.1056 86.7172 17.1206C86.7172 17.3118 86.7751 17.4895 86.8745 17.637L84.6318 19.9302ZM88.3395 16.5117L90.346 15.3672C90.3332 15.3059 90.3264 15.2423 90.3264 15.1771C90.3264 14.7976 90.5548 14.4715 90.8817 14.3287V12.0464C90.5548 11.9036 90.3264 11.5775 90.3264 11.198C90.3264 11.1328 90.3331 11.0693 90.3459 11.008L88.2822 9.8308C88.116 9.98976 87.8907 10.0874 87.6426 10.0874C87.3774 10.0874 87.1383 9.97586 86.9695 9.79713L84.9283 10.9615C84.9482 11.037 84.9588 11.1162 84.9588 11.198C84.9588 11.6123 84.6865 11.9631 84.311 12.081V14.3287C84.6379 14.4715 84.8663 14.7976 84.8663 15.1771C84.8663 15.2423 84.8595 15.3059 84.8467 15.3672L86.9159 16.5475C87.0854 16.3329 87.3479 16.1952 87.6426 16.1952C87.9206 16.1952 88.1699 16.3177 88.3395 16.5117Z" fill="#F2994A"/>
<path d="M0 0H6.69C8.15 0 9.45 0.22 10.59 0.66C11.75 1.08 12.66 1.78 13.32 2.76C13.98 3.72 14.31 5 14.31 6.6C14.31 8.08 13.96 9.31 13.26 10.29C12.58 11.27 11.66 12 10.5 12.48C9.36 12.94 8.11 13.17 6.75 13.17H3.78V21.9H0.45V1.92L0 0ZM3.81 2.46V10.77H6.75C8.01 10.77 9 10.39 9.72 9.63C10.44 8.85 10.8 7.84 10.8 6.6C10.8 5.32 10.46 4.31 9.78 3.57C9.1 2.83 8.1 2.46 6.78 2.46H3.81Z" fill="#F2994A"/>
<path d="M17.2859 0H21.0659V19.44H30.0059V21.9H17.7059V1.92L17.2859 0Z" fill="#F2994A"/>
<path d="M41.726 0L49.376 21.9H45.716L43.346 14.91H36.446L34.046 21.9H31.106L38.786 0H41.726ZM39.926 4.32L37.256 12.48H42.536L39.926 4.32Z" fill="#F2994A"/>
<path d="M55.8518 0.0299996L65.0018 14.04C65.2018 14.34 65.4018 14.65 65.6018 14.97C65.8018 15.29 66.0018 15.6 66.2018 15.9C66.1818 15.56 66.1518 15.21 66.1118 14.85C66.0918 14.47 66.0818 14.1 66.0818 13.74V0.0299996H68.8118V22.05H66.4118L55.8218 5.85C55.6418 5.55 55.4418 5.25 55.2218 4.95C55.0218 4.63 54.8318 4.33 54.6518 4.05C54.6718 4.37 54.6918 4.7 54.7118 5.04C54.7518 5.38 54.7718 5.71 54.7718 6.03V21.9H52.0418V1.95L51.6218 0.0299996H55.8518Z" fill="#F2994A"/>
</svg>
